<svg width="150" height="41" viewBox="0 0 150 41" fill="none" xmlns="http://www.w3.org/2000/svg">
<mask id="mask0_1_84" style="mask-type:luminance" maskUnits="userSpaceOnUse" x="0" y="0" width="40" height="40">
<path d="M0 3.8147e-06H40V40H0V3.8147e-06Z" fill="white"/>
</mask>
<g mask="url(#mask0_1_84)">
<path d="M28.6719 1.5625C28.6719 1.5625 28.2812 6.34375 28.2812 9.14836C28.2812 11.9529 30.5548 14.2969 33.3594 14.2969C36.1639 14.2969 38.4375 11.9529 38.4375 9.14836C38.4375 6.34375 38.0469 1.5625 38.0469 1.5625" stroke="white" stroke-width="3" stroke-miterlimit="10" stroke-linecap="round" stroke-linejoin="round"/>
<path d="M33.3594 1.5625V7.57812" stroke="white" stroke-width="3" stroke-miterlimit="10" stroke-linecap="round" stroke-linejoin="round"/>
<path d="M27.6562 36.7969C25.3353 37.8506 22.715 38.4375 20 38.4375C9.81726 38.4375 1.5625 30.1827 1.5625 20C1.5625 9.81727 9.81726 1.5625 20 1.5625C20.848 1.5625 21.6825 1.61969 22.5 1.73055" stroke="white" stroke-width="3" stroke-miterlimit="10" stroke-linecap="round" stroke-linejoin="round"/>
<path d="M20.297 30.8563C14.3221 30.9979 9.36357 26.2696 9.22185 20.2953C9.08014 14.3209 13.8089 9.36284 19.7839 9.22112C20.7319 9.19862 21.6965 9.32307 22.5781 9.53128" stroke="white" stroke-width="3" stroke-miterlimit="10" stroke-linecap="round" stroke-linejoin="round"/>
<path d="M33.3594 20.5469V38.4375" stroke="white" stroke-width="3" stroke-miterlimit="10" stroke-linecap="round" stroke-linejoin="round"/>
</g>
<path d="M45.4347 40V25.4545H50.8892C52.0066 25.4545 52.9441 25.6487 53.7017 26.0369C54.464 26.4252 55.0393 26.9697 55.4276 27.6705C55.8205 28.3665 56.017 29.1785 56.017 30.1065C56.017 31.0393 55.8182 31.849 55.4205 32.5355C55.0275 33.2173 54.4474 33.7453 53.6804 34.1193C52.9134 34.4886 51.9711 34.6733 50.8537 34.6733H46.9688V32.4858H50.4986C51.152 32.4858 51.687 32.3958 52.1037 32.2159C52.5204 32.0312 52.8281 31.7637 53.027 31.4134C53.2306 31.0582 53.3324 30.6226 53.3324 30.1065C53.3324 29.5904 53.2306 29.1501 53.027 28.7855C52.8234 28.4162 52.5133 28.1368 52.0966 27.9474C51.6799 27.7533 51.1425 27.6562 50.4844 27.6562H48.0696V40H45.4347ZM52.9489 33.4091L56.5497 40H53.6094L50.0724 33.4091H52.9489ZM63.0021 40.2131C61.9084 40.2131 60.9638 39.9858 60.1683 39.5312C59.3776 39.072 58.7692 38.4233 58.343 37.5852C57.9169 36.7424 57.7038 35.7505 57.7038 34.6094C57.7038 33.4872 57.9169 32.5024 58.343 31.6548C58.7739 30.8026 59.3752 30.1397 60.147 29.6662C60.9188 29.188 61.8255 28.9489 62.8672 28.9489C63.5395 28.9489 64.174 29.0578 64.7706 29.2756C65.3719 29.4886 65.9022 29.8201 66.3615 30.2699C66.8255 30.7197 67.1901 31.2926 67.4553 31.9886C67.7204 32.6799 67.853 33.5038 67.853 34.4602V35.2486H58.9112V33.5156H65.3885C65.3838 33.0232 65.2772 32.5852 65.0689 32.2017C64.8606 31.8134 64.5694 31.508 64.1953 31.2855C63.826 31.063 63.3951 30.9517 62.9027 30.9517C62.3771 30.9517 61.9155 31.0795 61.5178 31.3352C61.12 31.5862 60.8099 31.9176 60.5874 32.3295C60.3696 32.7367 60.2583 33.1842 60.2536 33.6719V35.1847C60.2536 35.8191 60.3696 36.3636 60.6016 36.8182C60.8336 37.268 61.1579 37.6136 61.5746 37.8551C61.9912 38.0919 62.4789 38.2102 63.0376 38.2102C63.4117 38.2102 63.7502 38.1581 64.0533 38.054C64.3563 37.9451 64.6191 37.7865 64.8416 37.5781C65.0642 37.3698 65.2322 37.1117 65.3459 36.804L67.7464 37.0739C67.5949 37.7083 67.3061 38.2623 66.88 38.7358C66.4586 39.2045 65.9188 39.5691 65.2607 39.8295C64.6025 40.0852 63.8497 40.2131 63.0021 40.2131ZM78.6502 31.9744L76.3065 32.2301C76.2402 31.9934 76.1242 31.7708 75.9585 31.5625C75.7975 31.3542 75.5797 31.1861 75.305 31.0582C75.0304 30.9304 74.6942 30.8665 74.2965 30.8665C73.7615 30.8665 73.3117 30.9825 72.9471 31.2145C72.5872 31.4465 72.4097 31.7472 72.4144 32.1165C72.4097 32.4337 72.5257 32.6918 72.7624 32.8906C73.0039 33.0895 73.4016 33.2528 73.9556 33.3807L75.8164 33.7784C76.8486 34.0009 77.6156 34.3537 78.1175 34.8366C78.6242 35.3196 78.8799 35.9517 78.8846 36.733C78.8799 37.4195 78.6786 38.0256 78.2809 38.5511C77.8879 39.072 77.341 39.4792 76.6403 39.7727C75.9395 40.0663 75.1346 40.2131 74.2255 40.2131C72.8903 40.2131 71.8155 39.9337 71.0011 39.375C70.1867 38.8116 69.7013 38.0279 69.5451 37.0241L72.0522 36.7827C72.1658 37.2751 72.4073 37.6468 72.7766 37.8977C73.146 38.1487 73.6265 38.2741 74.2184 38.2741C74.8292 38.2741 75.3192 38.1487 75.6886 37.8977C76.0626 37.6468 76.2496 37.3366 76.2496 36.9673C76.2496 36.6548 76.1289 36.3968 75.8874 36.1932C75.6507 35.9896 75.2814 35.8333 74.7795 35.7244L72.9187 35.3338C71.8723 35.116 71.0981 34.7491 70.5962 34.233C70.0943 33.7121 69.8458 33.054 69.8505 32.2585C69.8458 31.5862 70.0281 31.0038 70.3974 30.5114C70.7714 30.0142 71.2899 29.6307 71.9528 29.3608C72.6204 29.0862 73.3898 28.9489 74.261 28.9489C75.5394 28.9489 76.5456 29.2211 77.2795 29.7656C78.0181 30.3101 78.475 31.0464 78.6502 31.9744ZM86.4521 29.0909V31.0795H80.1808V29.0909H86.4521ZM81.729 26.4773H84.3001V36.7188C84.3001 37.0644 84.3522 37.3295 84.4563 37.5142C84.5652 37.6941 84.7073 37.8172 84.8825 37.8835C85.0576 37.9498 85.2518 37.983 85.4648 37.983C85.6258 37.983 85.7726 37.9711 85.9052 37.9474C86.0425 37.9238 86.1467 37.9025 86.2177 37.8835L86.6509 39.8935C86.5136 39.9408 86.3171 39.9929 86.0614 40.0497C85.8105 40.1065 85.5027 40.1397 85.1381 40.1491C84.4942 40.1681 83.9142 40.071 83.3981 39.858C82.882 39.6402 82.4724 39.304 82.1694 38.8494C81.8711 38.3949 81.7243 37.8267 81.729 37.1449V26.4773ZM91.7415 40.2202C91.0502 40.2202 90.4276 40.0971 89.8736 39.8509C89.3243 39.5999 88.8887 39.2306 88.5668 38.7429C88.2495 38.2552 88.0909 37.6539 88.0909 36.9389C88.0909 36.3234 88.2045 35.8144 88.4318 35.4119C88.6591 35.0095 88.9692 34.6875 89.3622 34.446C89.7552 34.2045 90.1979 34.0223 90.6903 33.8991C91.1875 33.7713 91.7012 33.679 92.2315 33.6222C92.8707 33.5559 93.3892 33.4967 93.7869 33.4446C94.1847 33.3878 94.4735 33.3026 94.6534 33.1889C94.8381 33.0705 94.9304 32.8883 94.9304 32.642V32.5994C94.9304 32.0644 94.7718 31.6501 94.4545 31.3565C94.1373 31.063 93.6804 30.9162 93.0838 30.9162C92.4541 30.9162 91.9545 31.0535 91.5852 31.3281C91.2206 31.6027 90.9744 31.9271 90.8466 32.3011L88.446 31.9602C88.6354 31.2973 88.9479 30.7434 89.3835 30.2983C89.8191 29.8485 90.3518 29.5123 90.9815 29.2898C91.6113 29.0625 92.3073 28.9489 93.0696 28.9489C93.5952 28.9489 94.1184 29.0104 94.6392 29.1335C95.16 29.2566 95.6359 29.4602 96.0668 29.7443C96.4976 30.0237 96.8433 30.4048 97.1037 30.8878C97.3688 31.3707 97.5014 31.9744 97.5014 32.6989V40H95.0298V38.5014H94.9446C94.7884 38.8045 94.5682 39.0885 94.2841 39.3537C94.0047 39.6141 93.652 39.8248 93.2259 39.9858C92.8045 40.142 92.3097 40.2202 91.7415 40.2202ZM92.4091 38.331C92.9252 38.331 93.3726 38.2292 93.7514 38.0256C94.1302 37.8172 94.4214 37.5426 94.625 37.2017C94.8333 36.8608 94.9375 36.4891 94.9375 36.0866V34.8011C94.857 34.8674 94.7197 34.929 94.5256 34.9858C94.3362 35.0426 94.1231 35.0923 93.8864 35.1349C93.6496 35.1776 93.4152 35.2154 93.1832 35.2486C92.9512 35.2817 92.75 35.3101 92.5795 35.3338C92.196 35.3859 91.8527 35.4711 91.5497 35.5895C91.2467 35.7079 91.0076 35.8736 90.8324 36.0866C90.6572 36.295 90.5696 36.5649 90.5696 36.8963C90.5696 37.3698 90.7424 37.7273 91.0881 37.9688C91.4337 38.2102 91.8741 38.331 92.4091 38.331ZM107.04 35.4119V29.0909H109.611V40H107.118V38.0611H107.004C106.758 38.6719 106.353 39.1714 105.79 39.5597C105.231 39.9479 104.542 40.142 103.723 40.142C103.008 40.142 102.376 39.9834 101.827 39.6662C101.282 39.3442 100.856 38.8778 100.548 38.267C100.241 37.6515 100.087 36.9081 100.087 36.0369V29.0909H102.658V35.6392C102.658 36.3305 102.847 36.8797 103.226 37.2869C103.605 37.6941 104.102 37.8977 104.717 37.8977C105.096 37.8977 105.463 37.8054 105.818 37.6207C106.173 37.4361 106.464 37.1615 106.692 36.7969C106.924 36.4276 107.04 35.9659 107.04 35.4119ZM112.255 40V29.0909H114.748V30.9091H114.861C115.06 30.2794 115.401 29.794 115.884 29.4531C116.372 29.1075 116.928 28.9347 117.553 28.9347C117.695 28.9347 117.854 28.9418 118.029 28.956C118.209 28.9654 118.358 28.982 118.476 29.0057V31.3707C118.367 31.3329 118.194 31.2997 117.958 31.2713C117.726 31.2382 117.501 31.2216 117.283 31.2216C116.814 31.2216 116.393 31.3234 116.019 31.527C115.65 31.7259 115.358 32.0028 115.145 32.358C114.932 32.7131 114.826 33.1226 114.826 33.5866V40H112.255ZM123.128 40.2202C122.437 40.2202 121.814 40.0971 121.26 39.8509C120.711 39.5999 120.275 39.2306 119.953 38.7429C119.636 38.2552 119.478 37.6539 119.478 36.9389C119.478 36.3234 119.591 35.8144 119.819 35.4119C120.046 35.0095 120.356 34.6875 120.749 34.446C121.142 34.2045 121.585 34.0223 122.077 33.8991C122.574 33.7713 123.088 33.679 123.618 33.6222C124.257 33.5559 124.776 33.4967 125.174 33.4446C125.571 33.3878 125.86 33.3026 126.04 33.1889C126.225 33.0705 126.317 32.8883 126.317 32.642V32.5994C126.317 32.0644 126.158 31.6501 125.841 31.3565C125.524 31.063 125.067 30.9162 124.471 30.9162C123.841 30.9162 123.341 31.0535 122.972 31.3281C122.607 31.6027 122.361 31.9271 122.233 32.3011L119.833 31.9602C120.022 31.2973 120.335 30.7434 120.77 30.2983C121.206 29.8485 121.739 29.5123 122.368 29.2898C122.998 29.0625 123.694 28.9489 124.456 28.9489C124.982 28.9489 125.505 29.0104 126.026 29.1335C126.547 29.2566 127.023 29.4602 127.453 29.7443C127.884 30.0237 128.23 30.4048 128.49 30.8878C128.756 31.3707 128.888 31.9744 128.888 32.6989V40H126.417V38.5014H126.331C126.175 38.8045 125.955 39.0885 125.671 39.3537C125.391 39.6141 125.039 39.8248 124.613 39.9858C124.191 40.142 123.696 40.2202 123.128 40.2202ZM123.796 38.331C124.312 38.331 124.759 38.2292 125.138 38.0256C125.517 37.8172 125.808 37.5426 126.012 37.2017C126.22 36.8608 126.324 36.4891 126.324 36.0866V34.8011C126.244 34.8674 126.106 34.929 125.912 34.9858C125.723 35.0426 125.51 35.0923 125.273 35.1349C125.036 35.1776 124.802 35.2154 124.57 35.2486C124.338 35.2817 124.137 35.3101 123.966 35.3338C123.583 35.3859 123.239 35.4711 122.936 35.5895C122.633 35.7079 122.394 35.8736 122.219 36.0866C122.044 36.295 121.956 36.5649 121.956 36.8963C121.956 37.3698 122.129 37.7273 122.475 37.9688C122.82 38.2102 123.261 38.331 123.796 38.331ZM134.044 33.608V40H131.473V29.0909H133.931V30.9446H134.059C134.31 30.3338 134.71 29.8485 135.259 29.4886C135.813 29.1288 136.497 28.9489 137.311 28.9489C138.064 28.9489 138.72 29.1098 139.279 29.4318C139.842 29.7538 140.278 30.2202 140.586 30.831C140.898 31.4418 141.052 32.1828 141.047 33.054V40H138.476V33.4517C138.476 32.7225 138.287 32.152 137.908 31.7401C137.534 31.3281 137.016 31.1222 136.353 31.1222C135.903 31.1222 135.503 31.2216 135.152 31.4205C134.807 31.6146 134.534 31.8963 134.336 32.2656C134.141 32.6349 134.044 33.0824 134.044 33.608ZM149.108 29.0909V31.0795H142.837V29.0909H149.108ZM144.385 26.4773H146.956V36.7188C146.956 37.0644 147.008 37.3295 147.113 37.5142C147.221 37.6941 147.364 37.8172 147.539 37.8835C147.714 37.9498 147.908 37.983 148.121 37.983C148.282 37.983 148.429 37.9711 148.561 37.9474C148.699 37.9238 148.803 37.9025 148.874 37.8835L149.307 39.8935C149.17 39.9408 148.973 39.9929 148.718 40.0497C148.467 40.1065 148.159 40.1397 147.794 40.1491C147.15 40.1681 146.57 40.071 146.054 39.858C145.538 39.6402 145.129 39.304 144.826 38.8494C144.527 38.3949 144.381 37.8267 144.385 37.1449V26.4773Z" fill="white"/>
</svg>
