<svg width="24" height="24" viewBox="0 0 24 24" fill="none" xmlns="http://www.w3.org/2000/svg">
<path d="M15.7999 9.19999C15.3326 8.74193 14.7043 8.48535 14.0499 8.48535C13.3955 8.48535 12.7672 8.74193 12.2999 9.19999L11.9999 9.59999L11.6499 9.29999C11.4206 9.05186 11.142 8.85447 10.8318 8.72054C10.5217 8.5866 10.1869 8.51908 9.84914 8.52233C9.51133 8.52557 9.17794 8.59951 8.87043 8.73938C8.56292 8.87926 8.2881 9.08196 8.06366 9.33446C7.83922 9.58695 7.67013 9.88364 7.56728 10.2054C7.46443 10.5272 7.43009 10.867 7.46647 11.2028C7.50285 11.5387 7.60915 11.8632 7.77852 12.1555C7.94789 12.4478 8.17659 12.7014 8.44989 12.9L12.0499 16.4L15.6499 12.9C16.8499 11.7 16.7499 10.2 15.8499 9.19999M7.9 20C9.80858 20.9791 12.0041 21.2443 14.0909 20.7478C16.1777 20.2514 18.0186 19.0259 19.2818 17.2922C20.545 15.5586 21.1474 13.4308 20.9806 11.2922C20.8137 9.15366 19.8886 7.14502 18.3718 5.62824C16.855 4.11146 14.8464 3.1863 12.7078 3.01946C10.5693 2.85263 8.44147 3.45509 6.70782 4.71829C4.97417 5.98149 3.74869 7.82236 3.25222 9.90916C2.75575 11.996 3.02094 14.1915 4 16.1L2 22L7.9 20Z" stroke="black" stroke-width="2" stroke-linecap="round" stroke-linejoin="round"/>
</svg>
